<svg width="24" height="20" viewBox="0 0 24 20" fill="none" xmlns="http://www.w3.org/2000/svg">
<path d="M23.5 10C23.5 10.1326 23.4473 10.2598 23.3536 10.3536C23.2598 10.4473 23.1326 10.5 23 10.5H2.20753L10.3538 18.6463C10.4476 18.7401 10.5003 18.8673 10.5003 19C10.5003 19.1327 10.4476 19.2599 10.3538 19.3538C10.26 19.4476 10.1327 19.5003 10 19.5003C9.86734 19.5003 9.7401 19.4476 9.64628 19.3538L0.646277 10.3538C0.599789 10.3073 0.56291 10.2522 0.537747 10.1915C0.512585 10.1308 0.499634 10.0657 0.499634 10C0.499634 9.9343 0.512585 9.86923 0.537747 9.80853C0.56291 9.74783 0.599789 9.69269 0.646277 9.64625L9.64628 0.646253C9.69273 0.599798 9.74788 0.562948 9.80858 0.537807C9.86927 0.512665 9.93433 0.499725 10 0.499725C10.0657 0.499725 10.1308 0.512665 10.1915 0.537807C10.2522 0.562948 10.3073 0.599798 10.3538 0.646253C10.4002 0.692708 10.4371 0.747859 10.4622 0.808555C10.4874 0.869252 10.5003 0.934306 10.5003 1C10.5003 1.0657 10.4874 1.13076 10.4622 1.19145C10.4371 1.25215 10.4002 1.3073 10.3538 1.35375L2.20753 9.5H23C23.1326 9.5 23.2598 9.55268 23.3536 9.64645C23.4473 9.74022 23.5 9.8674 23.5 10Z" fill="white"/>
</svg>
