<svg width="16" height="9" viewBox="0 0 16 9" fill="none" xmlns="http://www.w3.org/2000/svg">
<path d="M15.7653 1.26528L8.26528 8.76528C8.23045 8.80014 8.18909 8.8278 8.14357 8.84667C8.09804 8.86555 8.04925 8.87526 7.99996 8.87526C7.95068 8.87526 7.90189 8.86555 7.85636 8.84667C7.81084 8.8278 7.76948 8.80014 7.73465 8.76528L0.234652 1.26528C0.19981 1.23044 0.172173 1.18907 0.153317 1.14355C0.134461 1.09803 0.124756 1.04924 0.124756 0.999965C0.124756 0.950692 0.134461 0.901901 0.153317 0.856379C0.172173 0.810856 0.19981 0.769493 0.234652 0.734652C0.305017 0.664287 0.400453 0.624756 0.499964 0.624756C0.549237 0.624756 0.598028 0.634461 0.643551 0.653317C0.689073 0.672173 0.730436 0.699811 0.765277 0.734652L7.99996 7.96934L15.2347 0.734652C15.2695 0.699811 15.3109 0.672173 15.3564 0.653317C15.4019 0.634461 15.4507 0.624756 15.5 0.624756C15.5492 0.624756 15.598 0.634461 15.6436 0.653317C15.6891 0.672173 15.7304 0.699811 15.7653 0.734652C15.8001 0.769493 15.8278 0.810856 15.8466 0.856379C15.8655 0.901901 15.8752 0.950692 15.8752 0.999965C15.8752 1.04924 15.8655 1.09803 15.8466 1.14355C15.8278 1.18907 15.8001 1.23044 15.7653 1.26528Z" fill="white"/>
</svg>
