<svg width="165" height="165" viewBox="0 0 165 165" fill="none" xmlns="http://www.w3.org/2000/svg">
<circle cx="82.5" cy="82.5" r="82" fill="#13CA72"/>
<path d="M134.72 55.8234L123.47 44.7703C122.948 44.2459 122.327 43.8298 121.643 43.5459C120.959 43.262 120.226 43.1158 119.486 43.1158C118.746 43.1158 118.013 43.262 117.329 43.5459C116.645 43.8298 116.024 44.2459 115.502 44.7703L70.75 88.9828L52.2344 71.0203C51.7118 70.4959 51.0909 70.0798 50.4071 69.7959C49.7234 69.512 48.9903 69.3658 48.25 69.3658C47.5097 69.3658 46.7766 69.512 46.0929 69.7959C45.4092 70.0798 44.7882 70.4959 44.2656 71.0203L33.0156 82.2703C32.4912 82.7929 32.0752 83.4138 31.7913 84.0975C31.5073 84.7813 31.3612 85.5143 31.3612 86.2547C31.3612 86.995 31.5073 87.728 31.7913 88.4118C32.0752 89.0955 32.4912 89.7164 33.0156 90.239L66.5828 123.989C67.1054 124.513 67.7264 124.93 68.4101 125.213C69.0938 125.497 69.8269 125.643 70.5672 125.643C71.3075 125.643 72.0406 125.497 72.7243 125.213C73.408 124.93 74.029 124.513 74.5516 123.989L134.73 63.7875C135.253 63.2644 135.668 62.6432 135.95 61.9596C136.233 61.2759 136.378 60.5433 136.377 59.8035C136.376 59.0637 136.229 58.3314 135.945 57.6484C135.661 56.9655 135.245 56.3453 134.72 55.8234ZM132.081 61.139L71.8891 121.327C71.5376 121.677 71.0614 121.874 70.5649 121.874C70.0684 121.874 69.5921 121.677 69.2406 121.327L35.6735 87.5765C35.4991 87.4024 35.3608 87.1956 35.2665 86.968C35.1721 86.7404 35.1235 86.4964 35.1235 86.25C35.1235 86.0036 35.1721 85.7596 35.2665 85.5319C35.3608 85.3043 35.4991 85.0975 35.6735 84.9234L46.9235 73.6734C47.0968 73.4981 47.3034 73.3592 47.5313 73.265C47.7591 73.1708 48.0035 73.1232 48.25 73.125C48.7588 73.1277 49.2457 73.3316 49.6047 73.6922L69.4563 92.9484C69.8065 93.2905 70.2768 93.4821 70.7664 93.4821C71.2561 93.4821 71.7263 93.2905 72.0766 92.9484L118.188 47.4328C118.362 47.257 118.569 47.1175 118.798 47.0224C119.026 46.9272 119.271 46.8782 119.519 46.8782C119.766 46.8782 120.011 46.9272 120.24 47.0224C120.468 47.1175 120.676 47.257 120.85 47.4328L132.1 58.4859C132.273 58.6613 132.41 58.869 132.503 59.0973C132.595 59.3256 132.642 59.5699 132.641 59.8164C132.639 60.0628 132.589 60.3064 132.493 60.5334C132.397 60.7603 132.257 60.9661 132.081 61.139Z" fill="white"/>
</svg>
