<svg width="24" height="25" viewBox="0 0 24 25" fill="none" xmlns="http://www.w3.org/2000/svg">
<path d="M21.2653 21.2347L16.3247 16.2941C17.7094 14.7708 18.4434 12.7664 18.3699 10.7092C18.2964 8.6519 17.4213 6.70497 15.9314 5.2844C14.4415 3.86383 12.4552 3.08229 10.3967 3.10679C8.33832 3.13129 6.37111 3.95988 4.91548 5.41551C3.45985 6.87114 2.63126 8.83835 2.60676 10.8968C2.58226 12.9552 3.3638 14.9416 4.78437 16.4314C6.20494 17.9213 8.15187 18.7965 10.2091 18.87C12.2664 18.9434 14.2708 18.2094 15.794 16.8247L20.7347 21.7653C20.805 21.8357 20.9005 21.8752 21 21.8752C21.0995 21.8752 21.1949 21.8357 21.2653 21.7653C21.3357 21.695 21.3752 21.5995 21.3752 21.5C21.3752 21.4005 21.3357 21.3051 21.2653 21.2347ZM3.37498 11C3.37498 9.59082 3.79285 8.21327 4.57576 7.04157C5.35866 5.86987 6.47144 4.95664 7.77336 4.41737C9.07528 3.87809 10.5079 3.737 11.89 4.01192C13.2721 4.28684 14.5417 4.96543 15.5381 5.96188C16.5346 6.95832 17.2132 8.22788 17.4881 9.60999C17.763 10.9921 17.6219 12.4247 17.0826 13.7266C16.5433 15.0286 15.6301 16.1413 14.4584 16.9242C13.2867 17.7071 11.9092 18.125 10.5 18.125C8.61092 18.123 6.7998 17.3717 5.46404 16.036C4.12827 14.7002 3.37697 12.8891 3.37498 11Z" fill="#CA1395"/>
</svg>
