<svg width="24" height="18" viewBox="0 0 24 18" fill="none" xmlns="http://www.w3.org/2000/svg">
<path d="M23.5001 9.00003C23.5001 9.13264 23.4474 9.25982 23.3537 9.35358C23.2599 9.44735 23.1327 9.50003 23.0001 9.50003H1.00012C0.867514 9.50003 0.740337 9.44735 0.646569 9.35358C0.552801 9.25982 0.500122 9.13264 0.500122 9.00003C0.500122 8.86742 0.552801 8.74024 0.646569 8.64648C0.740337 8.55271 0.867514 8.50003 1.00012 8.50003H23.0001C23.1327 8.50003 23.2599 8.55271 23.3537 8.64648C23.4474 8.74024 23.5001 8.86742 23.5001 9.00003ZM1.00012 1.50003H23.0001C23.1327 1.50003 23.2599 1.44735 23.3537 1.35358C23.4474 1.25982 23.5001 1.13264 23.5001 1.00003C23.5001 0.867422 23.4474 0.740245 23.3537 0.646477C23.2599 0.552709 23.1327 0.500031 23.0001 0.500031H1.00012C0.867514 0.500031 0.740337 0.552709 0.646569 0.646477C0.552801 0.740245 0.500122 0.867422 0.500122 1.00003C0.500122 1.13264 0.552801 1.25982 0.646569 1.35358C0.740337 1.44735 0.867514 1.50003 1.00012 1.50003ZM23.0001 16.5H1.00012C0.867514 16.5 0.740337 16.5527 0.646569 16.6465C0.552801 16.7402 0.500122 16.8674 0.500122 17C0.500122 17.1326 0.552801 17.2598 0.646569 17.3536C0.740337 17.4474 0.867514 17.5 1.00012 17.5H23.0001C23.1327 17.5 23.2599 17.4474 23.3537 17.3536C23.4474 17.2598 23.5001 17.1326 23.5001 17C23.5001 16.8674 23.4474 16.7402 23.3537 16.6465C23.2599 16.5527 23.1327 16.5 23.0001 16.5Z" fill="#CA1395"/>
</svg>
