<svg width="24" height="19" viewBox="0 0 24 19" fill="none" xmlns="http://www.w3.org/2000/svg">
<g clip-path="url(#clip0_64_3)">
<path fill-rule="evenodd" clip-rule="evenodd" d="M12.8893 4.3301L12.8741 18.2915L9.13342 17.075V0.664642L13.9082 1.92702C16.9645 2.74845 18.8349 4.34518 18.8045 7.1436C18.7741 10.3984 17.2687 11.7062 14.3339 10.8545V4.43636C14.3339 3.66068 12.8893 3.61526 12.8893 4.3301Z" fill="#DE0029"/>
<path fill-rule="evenodd" clip-rule="evenodd" d="M7.41505 14.3675L5.65109 14.9608C4.51048 15.3563 3.53741 14.4286 4.58662 14.0482L5.43811 13.7442L2.22957 12.725C1.2411 13.0597 0.313458 13.7745 0.37443 14.7784C0.435261 15.7972 2.76173 16.0407 4.55623 16.3297C6.22882 16.6033 7.74946 16.4513 9.13341 15.9646V14.9151L7.41505 14.3675ZM12.9045 18.2915L16.1739 17.1508L12.8741 16.1015V18.2154L12.9045 18.2915Z" fill="#F3C202"/>
<path fill-rule="evenodd" clip-rule="evenodd" d="M21.6025 15.2347L21.6633 15.2193C23.0927 14.7176 23.7009 14.0178 23.549 13.364C23.3057 12.2691 21.5569 11.6758 18.8653 11.478C16.9342 11.3412 15.0334 11.767 13.1782 12.4057L12.8741 12.5122L16.2043 13.5464L18.1507 12.8924C20.1883 12.5122 21.0096 13.1813 19.0479 13.805L18.0746 14.1394L21.6025 15.2347ZM9.13337 10.3984L7.6582 10.9001L9.13337 11.3564V10.3984Z" fill="#326DB3"/>
<path fill-rule="evenodd" clip-rule="evenodd" d="M16.1739 17.1508L21.6026 15.2347L18.0746 14.1394L12.8741 15.9188V16.1015L16.1739 17.1508ZM9.13345 13.7896L7.4151 14.3675L9.13345 14.9151V13.7896ZM12.8741 14.6872V12.5123L16.2043 13.5464L12.8741 14.6872ZM5.43816 13.7442L9.13341 12.421V11.3564L7.65829 10.9001L2.30562 12.71C2.2904 12.71 2.26001 12.725 2.22961 12.725L5.43816 13.7442Z" fill="#00AA9E"/>
</g>
<defs>
<clipPath id="clip0_64_3">
<rect width="24" height="18.2346" fill="white" transform="translate(0 0.382721)"/>
</clipPath>
</defs>
</svg>
