<svg width="26" height="22" viewBox="0 0 26 22" fill="none" xmlns="http://www.w3.org/2000/svg">
<path d="M25.3538 7.35375L19.3538 13.3538C19.26 13.4476 19.1327 13.5003 19 13.5003C18.8673 13.5003 18.7401 13.4476 18.6463 13.3538C18.5525 13.2599 18.4998 13.1327 18.4998 13C18.4998 12.8673 18.5525 12.7401 18.6463 12.6463L23.7925 7.5H17.625C15.0749 7.49913 12.5967 8.34594 10.5804 9.90725C8.56402 11.4686 7.12382 13.6558 6.48628 16.125C6.45848 16.2327 6.39557 16.328 6.3075 16.3959C6.21944 16.4639 6.11124 16.5005 6.00003 16.5C5.95783 16.5001 5.91581 16.4946 5.87503 16.4838C5.74678 16.4505 5.63697 16.3677 5.56971 16.2536C5.50244 16.1395 5.48323 16.0033 5.51628 15.875C6.20796 13.1901 7.77324 10.8116 9.96552 9.11431C12.1578 7.41697 14.8525 6.49724 17.625 6.5H23.795L18.6463 1.35375C18.5525 1.25993 18.4998 1.13269 18.4998 1C18.4998 0.867321 18.5525 0.740074 18.6463 0.646254C18.7401 0.552433 18.8673 0.499725 19 0.499725C19.1327 0.499725 19.26 0.552433 19.3538 0.646253L25.3538 6.64625C25.4003 6.69269 25.4371 6.74783 25.4623 6.80853C25.4875 6.86923 25.5004 6.9343 25.5004 7C25.5004 7.06571 25.4875 7.13077 25.4623 7.19147C25.4371 7.25217 25.4003 7.30732 25.3538 7.35375ZM21 20.5H1.50003V5C1.50003 4.86739 1.44735 4.74022 1.35358 4.64645C1.25982 4.55268 1.13264 4.5 1.00003 4.5C0.867422 4.5 0.740245 4.55268 0.646477 4.64645C0.552709 4.74022 0.500031 4.86739 0.500031 5V21C0.500031 21.1326 0.552709 21.2598 0.646477 21.3536C0.740245 21.4473 0.867422 21.5 1.00003 21.5H21C21.1326 21.5 21.2598 21.4473 21.3536 21.3536C21.4474 21.2598 21.5 21.1326 21.5 21C21.5 20.8674 21.4474 20.7402 21.3536 20.6465C21.2598 20.5527 21.1326 20.5 21 20.5Z" fill="white"/>
</svg>
