<svg width="20" height="19" viewBox="0 0 20 19" fill="none" xmlns="http://www.w3.org/2000/svg">
<path d="M19.3244 18.0625C17.7757 15.385 15.2932 13.5569 12.4169 12.8978C13.7836 12.3379 14.9135 11.3207 15.6136 10.0201C16.3136 8.71954 16.5403 7.21625 16.2549 5.76708C15.9696 4.3179 15.1899 3.01278 14.049 2.07468C12.9082 1.13658 11.477 0.623718 10 0.623718C8.52303 0.623718 7.09186 1.13658 5.95102 2.07468C4.81019 3.01278 4.03049 4.3179 3.74514 5.76708C3.45978 7.21625 3.68648 8.71954 4.3865 10.0201C5.08651 11.3207 6.21641 12.3379 7.58315 12.8978C4.71065 13.5541 2.2244 15.385 0.675654 18.0625C0.630821 18.1482 0.620836 18.2479 0.647785 18.3408C0.674733 18.4337 0.736531 18.5126 0.820269 18.561C0.904006 18.6094 1.00321 18.6236 1.09715 18.6006C1.1911 18.5775 1.27252 18.5191 1.3244 18.4375C3.15628 15.2678 6.4019 13.375 10 13.375C13.5982 13.375 16.8438 15.2678 18.6757 18.4375C18.7085 18.4945 18.7558 18.5418 18.8127 18.5747C18.8697 18.6076 18.9343 18.6249 19 18.625C19.0659 18.6252 19.1307 18.6077 19.1875 18.5744C19.2735 18.5246 19.3362 18.4427 19.3618 18.3468C19.3875 18.2508 19.374 18.1486 19.3244 18.0625ZM4.37503 7C4.37503 5.88748 4.70493 4.79995 5.32301 3.87492C5.94109 2.94989 6.8196 2.22892 7.84743 1.80318C8.87527 1.37744 10.0063 1.26604 11.0974 1.48308C12.1886 1.70013 13.1908 2.23586 13.9775 3.02253C14.7642 3.8092 15.2999 4.81148 15.5169 5.90262C15.734 6.99376 15.6226 8.12476 15.1968 9.1526C14.7711 10.1804 14.0501 11.0589 13.1251 11.677C12.2001 12.2951 11.1125 12.625 10 12.625C8.50872 12.6233 7.07899 12.0301 6.02447 10.9756C4.96996 9.92104 4.37677 8.49131 4.37503 7Z" fill="white"/>
</svg>
